<svg
  width="23"
  height="23"
  viewBox="0 0 23 23"
  fill="none"
  xmlns="http://www.w3.org/2000/svg"
>
  <g filter="url(#filter0_i_2_2)">
    <path
      fill-rule="evenodd"
      clip-rule="evenodd"
      d="M11.371 22.743C17.651 22.743 22.743 17.652 22.743 11.371C22.743 5.091 17.652 0 11.37 0C5.091 0 0 5.091 0 11.371C0 17.651 5.091 22.743 11.371 22.743ZM11.371 16.918C12.8422 16.918 14.2531 16.3336 15.2933 15.2933C16.3336 14.2531 16.918 12.8422 16.918 11.371C16.918 9.89984 16.3336 8.48894 15.2933 7.44868C14.2531 6.40841 12.8422 5.824 11.371 5.824C9.89984 5.824 8.48894 6.40841 7.44868 7.44868C6.40841 8.48894 5.824 9.89984 5.824 11.371C5.824 12.8422 6.40841 14.2531 7.44868 15.2933C8.48894 16.3336 9.89984 16.918 11.371 16.918Z"
      fill="url(#paint0_linear_2_2)"
    />
  </g>
  <defs>
    <filter
      id="filter0_i_2_2"
      x="0"
      y="0"
      width="22.743"
      height="23.743"
      filterUnits="userSpaceOnUse"
      color-interpolation-filters="sRGB"
    >
      <feFlood flood-opacity="0" result="BackgroundImageFix" />
      <feBlend
        mode="normal"
        in="SourceGraphic"
        in2="BackgroundImageFix"
        result="shape"
      />
      <feColorMatrix
        in="SourceAlpha"
        type="matrix"
        values="0 0 0 0 0 0 0 0 0 0 0 0 0 0 0 0 0 0 127 0"
        result="hardAlpha"
      />
      <feOffset dy="1" />
      <feGaussianBlur stdDeviation="0.5" />
      <feComposite in2="hardAlpha" operator="arithmetic" k2="-1" k3="1" />
      <feColorMatrix
        type="matrix"
        values="0 0 0 0 0 0 0 0 0 0 0 0 0 0 0 0 0 0 0.01 0"
      />
      <feBlend mode="normal" in2="shape" result="effect1_innerShadow_2_2" />
    </filter>
    <linearGradient
      id="paint0_linear_2_2"
      x1="11.371"
      y1="-9.239"
      x2="11.371"
      y2="22.743"
      gradientUnits="userSpaceOnUse"
    >
      <stop stop-color="#F4F4F5" />
      <stop offset="0.625" stop-color="#45C18A" />
      <stop offset="1" stop-color="#41B883" stop-opacity="0.8" />
    </linearGradient>
  </defs>
</svg>
